<?xml version="1.0" ?><svg style="enable-background:new 0 0 256 256;" version="1.1" viewBox="0 0 256 256" xml:space="preserve" xmlns="http://www.w3.org/2000/svg" xmlns:xlink="http://www.w3.org/1999/xlink"><style type="text/css">
	.st0{fill:#D1D3D4;stroke:#58595B;stroke-width:5;stroke-miterlimit:10;}
	.st1{fill:#637976;}
	.st2{fill:#7B9391;}
	.st3{fill:none;stroke:#58595B;stroke-width:3;stroke-miterlimit:10;}
	.st4{fill:#58595B;}
	.st5{fill:#58595B;stroke:#414042;stroke-width:5;stroke-miterlimit:10;}
	.st6{fill:#1E2424;stroke:#414042;stroke-width:28;stroke-miterlimit:10;}
	.st7{fill:#E6E7E8;stroke:#6D6E71;stroke-width:2;stroke-miterlimit:10;}
	.st8{fill:#939598;}
	.st9{fill:#5CBFEB;}
	.st10{fill:#EC5453;}
	.st11{fill:#6D6E71;stroke:#58595B;stroke-width:5;stroke-miterlimit:10;}
	.st12{fill:#D1D3D4;}
	.st13{fill:#89C97D;}
	.st14{fill:#F89850;}
	.st15{fill:#4F4F4F;stroke:#E6E7E8;stroke-width:8;stroke-miterlimit:10;}
	.st16{fill:#4F4F4F;}
	.st17{fill:#414042;}
	.st18{fill:#D1D3D4;stroke:#4F4F4F;stroke-width:5;stroke-miterlimit:10;}
	.st19{fill:none;stroke:#58595B;stroke-width:5;stroke-miterlimit:10;}
	.st20{fill:#E6E7E8;}
	.st21{fill:#6D6E71;}
	.st22{fill:#6D6E71;stroke:#4F4F4F;stroke-width:5;stroke-miterlimit:10;}
	.st23{fill:#637976;stroke:#4F4F4F;stroke-width:5;stroke-miterlimit:10;}
	.st24{fill:#CDE6F7;}
	.st25{fill:#F2AA79;}
	.st26{fill:#A4D498;}
	.st27{fill:#F1F2F2;}
	.st28{fill:#E6E7E8;stroke:#4F4F4F;stroke-width:5;stroke-miterlimit:10;}
	.st29{fill:#808285;}
	.st30{fill:#B84747;}
	.st31{fill:#E6E7E8;stroke:#58595B;stroke-width:5;stroke-miterlimit:10;}
	.st32{fill:#BCBEC0;stroke:#58595B;stroke-width:2;stroke-miterlimit:10;}
	.st33{fill:#E58F8F;}
	.st34{fill:#93D7EE;}
	.st35{fill:none;stroke:#58595B;stroke-width:7;stroke-miterlimit:10;}
	.st36{fill:#F1F2F2;stroke:#58595B;stroke-width:5;stroke-miterlimit:10;}
	.st37{fill:#939598;stroke:#58595B;stroke-width:5;stroke-miterlimit:10;}
	.st38{fill:#939598;stroke:#6D6E71;stroke-miterlimit:10;}
	.st39{fill:#FFDE17;}
	.st40{fill:#4F4F4F;stroke:#D1D3D4;stroke-width:3;stroke-miterlimit:10;}
	.st41{fill:none;stroke:#58595B;stroke-width:6;stroke-miterlimit:10;}
	.st42{fill:#E6E7E8;stroke:#BCBEC0;stroke-width:2;stroke-miterlimit:10;}
	.st43{fill:#F1F2F2;stroke:#BCBEC0;stroke-width:2;stroke-miterlimit:10;}
	.st44{fill:#F1F2F2;stroke:#BCBEC0;stroke-miterlimit:10;}
	.st45{fill:#7AAAC8;stroke:#58595B;stroke-width:7;stroke-miterlimit:10;}
	.st46{fill:#E6E7E8;stroke:#58595B;stroke-width:7;stroke-miterlimit:10;}
	.st47{fill:#BCBEC0;}
	.st48{fill:#F7F8DB;stroke:#58595B;stroke-width:5;stroke-miterlimit:10;}
	.st49{fill:#58595B;stroke:#6D6E71;stroke-width:3;stroke-miterlimit:10;}
	.st50{fill:#414042;stroke:#808285;stroke-width:3;stroke-miterlimit:10;}
	.st51{fill:#1E2424;stroke:#6D6E71;stroke-width:3;stroke-miterlimit:10;}
	.st52{fill:#637976;stroke:#414042;stroke-miterlimit:10;}
</style><g id="gopro"/><g id="server"/><g id="video"/><g id="camera-back"/><g id="camera"/><g id="galaxy"/><g id="gameboy"/><g id="ipad"/><g id="iwatch"/><g id="imac_1_"/><g id="laptop"/><g id="iphone"/><g id="ipod"/><g id="walkman"/><g id="pet"/><g id="oldmac"><g><path class="st48" d="M198,207.1H62c-8.8,0-16-7.2-16-16v-152c0-8.8,7.2-16,16-16h136c8.8,0,16,7.2,16,16v152    C214,199.9,206.9,207.1,198,207.1z"/><path class="st0" d="M191.7,240.5H68.4c-4.4,0-8-3.6-8-8v-24.3h139.4v24.3C199.7,236.9,196.1,240.5,191.7,240.5z"/><path class="st4" d="M167.2,168.4v1.6h-38.7c-2.1,0-3.9,1.9-3.9,4.2v0c0,2.3,1.7,4.3,3.9,4.3h38.7v1.3c0,1.6,1.2,2.9,2.7,2.9h19    c4.3,0,7.8-3.8,7.8-8.5v0c0-4.7-3.5-8.5-7.8-8.5h-19.3C168.3,165.7,167.2,166.9,167.2,168.4z"/><circle class="st50" cx="80.5" cy="172.9" r="8"/><path class="st51" d="M183.3,230.3h-7.9c-1.1,0-2-0.9-2-2v-7.9c0-1.1,0.9-2,2-2h7.9c1.1,0,2,0.9,2,2v7.9    C185.3,229.4,184.4,230.3,183.3,230.3z"/><path class="st52" d="M188.4,143.3H71.7c-4.2,0-7.6-3.4-7.6-7.6V48.9c0-4.2,3.4-7.6,7.6-7.6h116.8c4.2,0,7.6,3.4,7.6,7.6v86.8    C196,139.9,192.6,143.3,188.4,143.3z"/><polygon class="st2" points="106.8,143.4 127.5,143.4 196.4,73.8 197.1,53.1   "/><polygon class="st2" points="145.5,143.4 164.1,144.5 197.1,111.5 195.1,93.7   "/><path class="st2" d="M139.5,90.8L139.5,90.8c-1.1-1.1-1.1-2.9,0-3.9l45.6-45.6l5.7,2.2l-47.4,47.4    C142.4,91.8,140.6,91.8,139.5,90.8z"/><path class="st2" d="M101.2,129.9l-0.9-0.9c-0.8-0.8-0.8-2.2,0-3.1l11.9-11.9c0.8-0.8,2.2-0.8,3.1,0l0.9,0.9    c0.8,0.8,0.8,2.2,0,3.1l-11.9,11.9C103.4,130.8,102.1,130.8,101.2,129.9z"/><path class="st2" d="M120.7,110.4l-0.9-0.9c-0.8-0.8-0.8-2.2,0-3.1l11.9-11.9c0.8-0.8,2.2-0.8,3.1,0l0.9,0.9    c0.8,0.8,0.8,2.2,0,3.1l-11.9,11.9C122.9,111.3,121.6,111.3,120.7,110.4z"/><path class="st19" d="M188.3,143.3H71.8c-4.4,0-8-3.6-8-8v-86c0-4.4,3.6-8,8-8h116.5c4.4,0,8,3.6,8,8v86    C196.3,139.7,192.7,143.3,188.3,143.3z"/></g></g></svg>